P3
2 3
255
111 111 111 133 133 133 155 155 155 
122 122 122 144 144 144 166 166 166 
